<svg version="1.1" id="Layer_2_1_" xmlns:x="ns_extend;" xmlns:i="ns_ai;" xmlns:graph="ns_graphs;" xmlns="http://www.w3.org/2000/svg" xmlns:xlink="http://www.w3.org/1999/xlink" x="0px" y="0px" viewBox="0 0 402.1 105" style="enable-background:new 0 0 402.1 105;" xml:space="preserve">
 <style type="text/css">
  .st0{fill:#00A6CA;}
 </style>
 <metadata>
  <sfw xmlns="ns_sfw;">
   <slices>
   </slices>
   <sliceSourceBounds bottomLeftOrigin="true" height="105" width="402.1" x="-101.1" y="-26">
   </sliceSourceBounds>
  </sfw>
 </metadata>
 <g>
  <path class="st0" d="M61.1,72c-1-0.8-2.2-1.4-3.6-1.8c-1.4-0.4-2.8-0.6-4-0.6c-1,0-2,0.2-3,0.4c-1,0.2-2,0.6-2.8,1
		c-0.8,0.4-1.6,1-2.4,1.8c-0.8,0.8-1.2,1.6-1.6,2.4c0-1.4-0.4-2.4-1.2-3.2c-0.6-0.8-1.6-1.4-2.6-1.8c-1-0.4-2.2-0.6-3.4-0.6
		c-1.2,0-2.4,0.2-3.8,0.4v5.2c0.8,0,1.6,0,2,0.2c0.6,0.2,0.8,0.4,1,0.8c0.2,0.4,0.4,0.8,0.4,1.4c0,0.6,0,1.2,0,2V104h7.6V84.5
		c0-1.4,0.2-2.6,0.8-3.6c0.4-1,1-1.8,1.8-2.4c0.8-0.6,1.8-1.2,2.8-1.4c1-0.2,2.2-0.6,3.2-0.6c2,0,3.8,0.4,5.4,1.2l0,0L61.1,72z">
  </path>
  <path class="st0" d="M94.7,98.8c-0.6-0.2-0.8-0.6-1-1c-0.2-0.4-0.4-1-0.4-1.6s0-1.2,0-2V72.8c-2.2-1-4.4-1.8-6.8-2.2
		c-2.2-0.6-4.6-0.8-7-0.8c-2.8,0-5.2,0.4-7.6,1.2c-2.2,0.8-4.2,2-6,3.6c-1.8,1.6-3,3.4-4,5.8c-1,2.2-1.6,4.8-1.6,7.6
		c0,2.4,0.2,4.6,1,6.6c0.6,2,1.6,3.8,2.8,5.4c1.2,1.6,2.8,2.8,4.8,3.6s4.2,1.2,6.6,1.2s4.8-0.6,7-2c2.2-1.2,3.8-3,4.6-5.4
		c0,1.8,0.2,3.2,0.8,4.2c0.6,1,1.2,1.8,2.2,2.2c1,0.6,2,0.8,3.2,0.8s2.4,0,3.6-0.4v-5.6C95.9,99,95.1,99,94.7,98.8z M85.9,87.1
		c0,3.2-0.8,5.6-2.4,7.6c-1.4,2-3.6,3-6.4,3c-3.2,0-5.4-1-7-2.8s-2.2-4.2-2.2-7.4c0-1.8,0.4-3.4,1-5c0.6-1.4,1.2-2.8,2.2-3.8
		c1-1,2-1.8,3.4-2.4c1.2-0.6,2.8-0.8,4.4-0.8c1,0,2.2,0,3.4,0.2c1.2,0.2,2.4,0.6,3.6,1V87.1L85.9,87.1z">
  </path>
  <path class="st0" d="M131.1,73.8c-1-1.2-2.4-2.2-4.2-3c-1.6-0.8-3.6-1.2-6-1.2c-1.2,0-2.2,0-3.4,0.2c-1.2,0.2-2.2,0.6-3.2,1
		c-1,0.4-2,1-2.8,1.8c-0.8,0.8-1.6,1.6-2,2.8c0-1.6-0.4-2.8-1-3.6S107,70.4,106,70c-1-0.2-2.2-0.4-3.4-0.4s-2.6,0.2-3.8,0.4v5.2
		c0.8,0,1.6,0,2,0.2c0.6,0.2,0.8,0.4,1,0.8c0.2,0.4,0.4,0.8,0.4,1.4c0,0.6,0,1.4,0,2.4V104h7.6V84.9c0-1.4,0.2-2.6,0.6-3.6
		c0.4-1.2,1-2,1.8-2.8s1.6-1.4,2.6-1.8c1-0.4,2.2-0.6,3.4-0.6c2.2,0,4.2,0.8,5.6,2.2c1.6,1.4,2.2,3.6,2.2,6.2v19.7h7.6V84.5
		c0-2-0.2-4-0.8-5.8C133.2,76.6,132.4,75.2,131.1,73.8z">
  </path>
  <path class="st0" d="M165.3,86.5c-1.2-0.8-2.8-1.2-4.4-1.6c-1.6-0.4-3.4-0.6-5.2-0.8c-2.6-0.4-4.6-0.8-6-1.2c-1.4-0.6-2-1.4-2-2.8
		c0-0.8,0.2-1.4,0.6-2c0.4-0.6,0.8-1,1.6-1.4c0.6-0.4,1.4-0.8,2.2-1c0.8-0.2,1.8-0.4,2.6-0.4c0.8,0,1.8,0,2.6,0.2
		c1,0.2,1.8,0.4,2.4,0.8c0.8,0.4,1.2,0.8,1.8,1.4c0.4,0.6,0.8,1.2,0.8,2h6.6c0-1.6-0.2-3.2-1-4.4c-0.8-1.2-1.8-2.2-3-3.2
		c-1.4-0.8-2.8-1.6-4.6-2s-3.6-0.6-5.6-0.6c-1.8,0-3.6,0.2-5.4,0.6s-3.2,1-4.6,2c-1.4,0.8-2.4,2-3.2,3.2c-0.8,1.2-1.2,2.8-1.2,4.6
		c0,2,0.6,3.4,1.4,4.6c1,1.2,2,2,3.4,2.6c1.4,0.6,3,1,4.8,1.4c1.8,0.2,3.4,0.6,5.2,0.8c2.2,0.2,4,0.8,5.4,1.4c1.4,0.6,2,1.6,2,3.2
		c0,1-0.2,1.8-0.8,2.6c-0.6,0.6-1.2,1.2-1.8,1.6c-0.8,0.4-1.6,0.6-2.6,0.8c-1,0.2-1.8,0.2-2.8,0.2s-1.8-0.2-2.8-0.2
		c-0.8-0.2-1.6-0.6-2.4-1c-0.8-0.4-1.2-1-1.8-1.6c-0.4-0.6-0.8-1.4-0.8-2.2h-7.4c0.2,2,0.6,3.8,1.6,5.2c1,1.4,2,2.4,3.6,3.2
		c1.4,0.8,3,1.4,4.8,1.8c1.8,0.4,3.6,0.6,5.4,0.6s3.6-0.2,5.4-0.6s3.4-1,4.6-2c1.2-1,2.4-2,3.2-3.2c0.8-1.4,1.2-3,1.2-4.8
		c0-2-0.4-3.6-1.2-4.8C167.6,88.1,166.6,87.3,165.3,86.5z">
  </path>
  <path class="st0" d="M250.6,73.8c-1-1.2-2.4-2.2-4.2-3c-1.6-0.8-3.6-1.2-6-1.2c-1.2,0-2.2,0-3.4,0.2c-1.2,0.2-2.2,0.6-3.2,1
		c-1,0.4-2,1-2.8,1.8c-0.8,0.8-1.6,1.6-2,2.8c0-1.6-0.4-2.8-1-3.6s-1.4-1.4-2.4-1.8c-1-0.2-2.2-0.4-3.4-0.4s-2.6,0.2-3.6,0.4v5.2
		c0.8,0,1.6,0,2,0.2c0.6,0.2,0.8,0.4,1,0.8c0.2,0.4,0.4,0.8,0.4,1.4c0,0.6,0,1.4,0,2.4V104h7.6V84.9c0-1.4,0.2-2.6,0.6-3.6
		c0.4-1.2,1-2,1.8-2.8c0.8-0.8,1.6-1.4,2.6-1.8c1-0.4,2.2-0.6,3.4-0.6c2.2,0,4.2,0.8,5.6,2.2c1.6,1.4,2.2,3.6,2.2,6.2v19.7h7.6V84.5
		c0-2-0.2-4-0.8-5.8C252.6,76.6,251.8,75.2,250.6,73.8z">
  </path>
  <path class="st0" d="M264.1,55.5c-1.2,0-2.2,0.4-3.2,1.2c-1,0.8-1.4,1.8-1.4,3.4c0,1.6,0.6,2.6,1.4,3.4c1,0.8,2,1.2,3.2,1
		c1.2,0,2.2-0.4,3-1.2c1-0.8,1.4-1.8,1.4-3.4c0-1.6-0.4-2.6-1.4-3.4C266.3,55.7,265.3,55.5,264.1,55.5z">
  </path>
  <rect x="260.3" y="70.4" class="st0" width="7.6" height="33.8">
  </rect>
  <path class="st0" d="M303.5,74c-1.6-1.4-3.6-2.4-5.8-3.2c-2.2-0.8-4.4-1-6.8-1c-2.2,0-4.4,0.4-6.4,1c-2,0.8-4,1.8-5.6,3.2
		c-1.6,1.4-3,3.2-4,5.4c-1,2.2-1.6,4.6-1.6,7.6s0.6,5.6,1.6,7.6c1,2.2,2.4,4,4,5.6c1.6,1.4,3.6,2.6,5.6,3.2c2.2,0.8,4.2,1,6.6,1
		c2.2,0,4.4-0.4,6.6-1c2.2-0.6,4-1.8,5.6-3.2c1.6-1.4,3-3.2,4-5.6c1-2.2,1.6-4.8,1.6-7.6c0-3-0.6-5.4-1.6-7.6
		C306.6,77.2,305.1,75.4,303.5,74z M300.5,91.9c-0.6,1.4-1.4,2.4-2.2,3.4c-0.8,1-2,1.6-3.2,2c-1.2,0.4-2.4,0.8-3.6,0.8
		c-1.2,0-2.6-0.2-3.8-0.6c-1.2-0.4-2.4-1.2-3.2-2c-1-1-1.8-2-2.4-3.4c-0.6-1.4-0.8-3-0.8-4.8s0.2-3.2,0.8-4.6
		c0.6-1.4,1.2-2.4,2.2-3.2c1-0.8,2-1.6,3.2-2c1.2-0.4,2.4-0.6,3.6-0.8c1.2,0,2.6,0.2,3.8,0.6s2.4,1,3.4,2c1,0.8,1.8,2,2.4,3.4
		c0.6,1.4,1,3,1,4.8C301.5,88.9,301.1,90.5,300.5,91.9z">
  </path>
  <path class="st0" d="M0,62.4v-7.2h36.4v7.2H22.1v41.8h-8V62.4H0z">
  </path>
  <path class="st0" d="M175.4,87.7V55.1h8v32.4c0,6.4,4.8,10.1,11.1,10.1c6.2,0,10.9-3.6,10.9-10.1V55.1h8v32.6
		c0,10.9-8.6,17.1-18.9,17.1C184.1,104.8,175.4,98.6,175.4,87.7z">
  </path>
  <path class="st0" d="M347,96.1v-5.4l0,0v-6.6c0-2-0.2-4-0.8-5.8s-1.4-3.2-2.4-4.6c-1-1.2-2.4-2.2-4.2-3c-1.6-0.8-3.6-1.2-6-1.2
		c-1.2,0-2.2,0-3.4,0.2c-1.2,0.2-2.2,0.6-3.2,1c-1,0.4-2,1-2.8,1.8s-1.6,1.6-2,2.8c0-1.6-0.4-2.8-1-3.6c-0.6-0.8-1.4-1.4-2.4-1.8
		c-1-0.2-2.2-0.4-3.4-0.4s-2.6,0.2-3.6,0.4V75c0.8,0,1.6,0,2,0.2c0.6,0.2,0.8,0.4,1,0.8c0.2,0.4,0.4,0.8,0.4,1.4c0,0.6,0,1.4,0,2.4
		v23.9h7.6V84.7c0-1.4,0.2-2.6,0.6-3.6c0.4-1.2,1-2,1.8-2.8c0.8-0.8,1.6-1.4,2.6-1.8c1-0.4,2.2-0.6,3.4-0.6c2.2,0,4.2,0.8,5.6,2.2
		c1.6,1.4,2.2,3.6,2.2,6.2v11.5l0,0v0.8c0,8.2,5,9.1,11.7,7.8v-4.8C347.6,99.8,347,98.8,347,96.1z">
  </path>
  <g>
   <g>
    <path class="st0" d="M366.9,0c-13.1,0-24.5,7-30.6,17.7c-2.2,4.2-2.6,7.8-0.8,10.9c2,3.6,6.6,4,9.1,4h4.4l-1.6,5
				c-1,3-0.6,6.4,1,8.6c1.6,2.2,4,3.4,7,3.4c2,0,4.2-0.4,6.2-1.2c-0.6-0.8-1-1.6-1.4-2.6c-0.2-0.8-0.6-1.6-0.6-2.6
				c-1.2,0.6-2.6,0.8-4,0.8c-0.8,0-2-0.2-2.6-1.2c-0.6-0.8-0.8-2-0.4-3.4l2.2-6.8h7l1.8-5.8h-6.8l3-9.5h-6l-3,9.5h-6.4
				c-2,0-3.2-0.6-3.8-1.6c-0.6-1.2,0-3.6,1.6-6.4v-0.2c5.4-7.8,14.3-13.1,24.5-13.1c16.3,0,29.6,13.3,29.6,29.6S383,64.6,366.7,64.6
				c-14.5,0-26.6-10.5-29.2-24.1l-5.6,1.2c3.2,16.3,17.5,28.8,34.8,28.8c19.5,0,35.4-15.9,35.4-35.4C402.3,15.9,386.4,0,366.9,0z">
    </path>
   </g>
   <g>
    <path class="st0" d="M389.4,45.1c-1.4,0-3.2-0.2-4.4-1c-0.4-0.4-1-0.8-1.2-1.8l0,0c0-0.4,0-1,0.2-1.6l4.4-13.5l0,0h-6l0,0
				l-3.8,11.7l0,0c-1,3-4.2,5.4-7,5.4c-0.8,0-1.8-0.2-2.2-1c-0.4-0.6-0.8-1.4-0.2-2.8l4.4-13.5h-6l-3.8,11.7c-1,2.8-0.6,5.8,1,8
				c1.6,2,3.8,3.2,6.8,3.2c2.8,0,5.8-1.2,8.2-3.2c0.8,1.2,1.8,2,3.2,2.6c2,0.6,3.2,0.6,4.6,0.6c0.6,0,1.4-0.2,1.6-0.2
				c0.2-0.2,0.2-0.4,0.4-0.6c0.2-0.4,0.4-0.8,0.6-1.2c0.2-0.4,0.4-0.8,0.6-1.2c0.2-0.4,0.4-0.8,0.6-1.2c0.2-0.2,0.2-0.6,0.4-0.8
				C391.2,45.1,390.4,45.1,389.4,45.1z">
    </path>
   </g>
  </g>
  <path class="st0" d="M354.8,100.2c0-6,9.1-6,9.1,0S354.8,106.2,354.8,100.2z M363.1,100.2c0-5.2-7.4-5.2-7.4,0
		C355.6,105.4,363.1,105.4,363.1,100.2z M361.3,102.2L361.3,102.2l-0.8,0.2l-1.2-1.6h-1v1.6h-0.6V98h1.8c0.8,0,1.6,0.6,1.6,1.4
		c0,0.6-0.4,1.2-1,1.2L361.3,102.2z M358.4,100.2h1c0.6,0,1-0.4,1-0.8c0-0.6-0.4-0.8-1-0.8h-1V100.2z">
  </path>
 </g>
</svg>